<svg width="470" height="70" viewBox="0 0 470 70" fill="none" xmlns="http://www.w3.org/2000/svg">
<path fill-rule="evenodd" clip-rule="evenodd" d="M141.196 15.4847H151.374C151.96 15.4847 152.411 15.8244 152.574 16.3161C152.615 16.4389 152.637 16.5716 152.639 16.7111L155.825 35.9358L166.269 16.6239C166.549 15.9718 167.227 15.4847 167.929 15.4847H178.532C179.36 15.4847 179.92 16.1629 179.774 16.9913L174.231 48.6425C174.086 49.4709 173.286 50.1487 172.461 50.1487H163.981C163.156 50.1487 162.806 49.4675 162.95 48.6425L165.527 33.9315C163.494 37.7021 158.873 46.2681 157.976 47.9002C156.817 50.005 155.63 50.0752 154.227 50.0752C152.823 50.0752 152.753 50.0752 151.174 50.0752C149.595 50.0752 148.992 49.5141 148.635 48.1455C148.357 47.0772 146.874 37.1346 146.237 32.8252L143.467 48.6425C143.322 49.469 142.735 50.1487 141.908 50.1487H135.126C134.299 50.1487 133.738 49.4709 133.883 48.6425L139.427 16.9913C139.572 16.1629 140.368 15.4847 141.196 15.4847Z" fill="#ED3334"/>
<path fill-rule="evenodd" clip-rule="evenodd" d="M206.733 18.5073C206.143 17.7199 205.202 16.8696 203.854 16.2274C202.2 15.4403 199.932 14.9668 196.942 15.3088C193.953 15.6507 191.224 16.7865 188.935 18.438C186.646 20.089 184.797 22.2556 183.569 24.6588C182.093 27.5495 181.346 30.2533 180.873 32.9564C180.399 35.6598 180.199 38.3637 180.663 41.254C181.049 43.6576 182.139 45.8238 183.85 47.4748C185.56 49.1263 187.892 50.2617 190.761 50.604C193.631 50.946 196.064 50.4721 197.994 49.6851C199.567 49.0428 200.806 48.1925 201.672 47.4055L201.478 48.5125C201.32 49.4125 201.927 50.1483 202.827 50.1483H210.783C211.683 50.1483 212.547 49.4125 212.705 48.5125L218.203 17.1205C218.361 16.2205 217.754 15.4843 216.854 15.4843H208.898C207.998 15.4843 207.133 16.2205 206.976 17.1205L206.733 18.5073ZM201.759 40.07C200.5 41.6532 198.645 42.8508 195.617 42.7106C192.008 42.543 191.028 37.7499 191.867 32.9568C192.706 28.1637 195.366 23.3702 199.034 23.203C202.111 23.0627 203.545 24.26 204.251 25.8435C205.782 29.2809 204.351 36.8127 201.759 40.07Z" fill="#ED3334"/>
<path fill-rule="evenodd" clip-rule="evenodd" d="M224.066 15.4847H232.439C233.267 15.4847 233.827 16.1629 233.681 16.9913L231.782 27.8384H234.539L242.573 17.0644C243.221 16.1955 244.428 15.4847 245.257 15.4847H252.893C254.072 15.4847 254.237 16.6937 253.59 17.5611L243.34 31.3046C243.184 31.5135 242.996 31.7133 242.788 31.896L249.24 48.2073C249.583 49.0747 248.995 50.2833 247.816 50.2833H240.179C239.351 50.2833 238.391 49.5725 238.048 48.7039L233.11 36.1883H230.319L228.138 48.6421C227.993 49.4705 227.197 50.1483 226.368 50.1483H217.995C217.166 50.1483 216.607 49.4705 216.752 48.6421L222.296 16.9909C222.44 16.1625 223.237 15.4847 224.066 15.4847Z" fill="#ED3334"/>
<path fill-rule="evenodd" clip-rule="evenodd" d="M258.824 18.4383C256.536 20.0894 254.686 22.256 253.459 24.6592C251.982 27.5499 251.236 30.2537 250.762 32.9568C250.289 35.6602 250.088 38.364 250.553 41.2544C250.939 43.658 252.028 45.8242 253.739 47.4752C258.462 52.0337 270.566 52.0337 276.885 47.4752C279.174 45.8242 281.023 43.658 282.251 41.2544C283.727 38.364 284.474 35.6602 284.947 32.9568C285.421 30.2537 285.622 27.5499 285.157 24.6592C284.771 22.256 283.681 20.0894 281.971 18.4383C277.248 13.8799 265.144 13.8799 258.824 18.4383ZM261.756 32.9568C264.054 19.8376 276.251 19.8376 273.953 32.9568C271.655 46.0759 259.459 46.0759 261.756 32.9568Z" fill="#ED3334"/>
<path fill-rule="evenodd" clip-rule="evenodd" d="M293.32 15.4847H321.902C322.731 15.4847 323.29 16.1629 323.145 16.9913L317.602 48.6425C317.457 49.4709 316.66 50.1487 315.831 50.1487H307.458C306.63 50.1487 306.07 49.4709 306.216 48.6425L310.444 24.4984H301.621L297.393 48.6425C297.247 49.4709 296.451 50.1487 295.622 50.1487H287.249C286.421 50.1487 285.861 49.4709 286.006 48.6425L291.55 16.9913C291.695 16.1629 292.491 15.4847 293.32 15.4847Z" fill="#ED3334"/>
<path fill-rule="evenodd" clip-rule="evenodd" d="M387.766 15.4847H397.412C398.241 15.4847 398.8 16.164 398.655 16.9913L393.112 48.6425C392.966 49.4709 392.17 50.1487 391.341 50.1487H382.968C382.14 50.1487 381.581 49.4709 381.726 48.6425L384.723 31.5256L372.338 49.1043C371.752 49.7935 371.376 50.1487 370.721 50.1487H361.075C360.248 50.1487 359.687 49.4709 359.833 48.6425L365.376 16.9913C365.521 16.1629 366.317 15.4847 367.146 15.4847H375.519C376.347 15.4847 376.907 16.164 376.762 16.9913L373.629 34.88L386.204 16.4279C386.609 15.8733 387.148 15.4847 387.766 15.4847Z" fill="#ED3334"/>
<path fill-rule="evenodd" clip-rule="evenodd" d="M404.974 15.4847H413.347C414.175 15.4847 414.735 16.1629 414.59 16.9913L412.69 27.8384H415.447L423.481 17.0644C424.129 16.1955 425.337 15.4847 426.165 15.4847H433.801C434.98 15.4847 435.146 16.6937 434.499 17.5611L424.248 31.3046C424.092 31.5135 423.904 31.7133 423.697 31.896L430.149 48.2073C430.491 49.0747 429.903 50.2833 428.724 50.2833H421.088C420.26 50.2833 419.3 49.5725 418.957 48.7039L414.018 36.1883H411.228L409.047 48.6421C408.901 49.4705 408.105 50.1483 407.276 50.1483H398.903C398.075 50.1483 397.515 49.4705 397.66 48.6421L403.204 16.9909C403.349 16.1625 404.145 15.4847 404.974 15.4847Z" fill="#ED3334"/>
<path fill-rule="evenodd" clip-rule="evenodd" d="M85.4133 18.5073C84.823 17.7199 83.8828 16.8696 82.5343 16.2274C80.8806 15.4403 78.6128 14.9668 75.6231 15.3088C72.6334 15.6507 69.9042 16.7865 67.6155 18.438C65.3268 20.089 63.4775 22.2556 62.25 24.6588C60.7733 27.5495 60.0265 30.2533 59.5534 32.9564C59.0798 35.6598 58.8793 38.3637 59.3437 41.254C59.7296 43.6576 60.8196 45.8238 62.5298 47.4748C64.2403 49.1263 66.5722 50.2617 69.4417 50.604C72.3116 50.946 74.7451 50.4721 76.6748 49.6851C78.2481 49.0428 79.4863 48.1925 80.3521 47.4055L80.1584 48.5125C80.0007 49.4125 80.6077 50.1483 81.5077 50.1483H89.4633C90.3633 50.1483 91.2281 49.4125 91.3854 48.5125L96.8837 17.1205C97.0414 16.2205 96.4344 15.4843 95.5344 15.4843H87.5788C86.6788 15.4843 85.8136 16.2205 85.6563 17.1205L85.4133 18.5073ZM80.4397 40.07C79.1803 41.6532 77.3257 42.8508 74.2981 42.7106C70.6882 42.543 69.7082 37.7499 70.5476 32.9568C71.3869 28.1637 74.046 23.3702 77.7143 23.203C80.7912 23.0627 82.2261 24.26 82.9312 25.8435C84.4625 29.2809 83.0317 36.8127 80.4397 40.07Z" fill="#ED3334"/>
<path fill-rule="evenodd" clip-rule="evenodd" d="M111.98 18.5073C112.846 17.7199 114.084 16.8696 115.657 16.2274C117.587 15.4403 120.021 14.9668 122.89 15.3088C125.76 15.6507 128.092 16.7865 129.802 18.438C131.513 20.089 132.603 22.2556 132.988 24.6588C133.453 27.5495 133.252 30.2533 132.779 32.9564C132.306 35.6598 131.559 38.3637 130.082 41.254C128.854 43.6576 127.006 45.8238 124.717 47.4748C122.428 49.1263 119.698 50.2617 116.709 50.604C113.719 50.946 111.452 50.4721 109.798 49.6851C108.45 49.0428 107.509 48.1925 106.919 47.4055L104.867 59.1208C104.71 60.0204 103.845 60.7566 102.945 60.7566H94.9893C94.0896 60.7566 93.4823 60.0208 93.64 59.1208L100.996 17.1205C101.154 16.2205 102.019 15.4843 102.918 15.4843H110.874C111.774 15.4843 112.381 16.2205 112.223 17.1205L111.98 18.5073ZM109.401 40.07C110.106 41.6532 111.541 42.8508 114.618 42.7106C118.286 42.543 120.945 37.7499 121.784 32.9568C122.624 28.1637 121.644 23.3702 118.034 23.203C115.006 23.0627 113.152 24.26 111.893 25.8435C109.157 29.2809 107.95 36.8127 109.401 40.07Z" fill="#ED3334"/>
<path fill-rule="evenodd" clip-rule="evenodd" d="M332.359 18.4383C330.071 20.0894 328.221 22.256 326.994 24.6592C325.517 27.5499 324.77 30.2537 324.297 32.9568C323.824 35.6602 323.623 38.364 324.088 41.2544C324.473 43.658 325.563 45.8242 327.274 47.4752C331.996 52.0337 344.101 52.0337 350.42 47.4752C352.709 45.8242 354.558 43.6576 355.786 41.2544C356.008 40.8184 356.043 40.7642 356.233 40.3362C357.062 38.4782 356.121 38.3553 354.926 38.3553H347.549C346.263 38.3553 346.148 38.3102 345.538 39.4055C345.114 40.1675 344.721 40.6747 344.171 41.2525C341.696 43.857 337.266 43.857 335.702 41.2525C335.136 40.3093 334.815 39.0715 334.76 37.6979C334.729 36.9052 334.752 36.1379 334.814 35.3827C341.663 35.3827 348.51 35.3827 355.359 35.3827C355.634 35.3827 355.909 35.3827 356.184 35.3827C357.708 35.3827 358.149 34.8516 358.344 33.7074C358.386 33.4572 358.439 33.2074 358.483 32.9572C358.956 30.2541 359.157 27.5503 358.692 24.6596C358.306 22.2564 357.216 20.0897 355.506 18.4387C350.783 13.8803 338.679 13.8799 332.359 18.4383ZM336.549 27.9002C337.074 26.6529 337.78 25.5315 338.608 24.6611C341.084 22.0562 345.513 22.0562 347.077 24.6611C347.6 25.5315 347.913 26.6529 348.002 27.9002H336.549Z" fill="#ED3334"/>
<path fill-rule="evenodd" clip-rule="evenodd" d="M458.092 18.5073C457.502 17.7199 456.561 16.8696 455.213 16.2274C453.559 15.4403 451.291 14.9668 448.302 15.3088C445.312 15.6507 442.583 16.7865 440.294 18.438C438.005 20.089 436.156 22.2556 434.928 24.6588C433.452 27.5495 432.705 30.2533 432.232 32.9564C431.758 35.6598 431.558 38.3637 432.022 41.254C432.408 43.6576 433.498 45.8238 435.209 47.4748C436.919 49.1263 439.251 50.2617 442.12 50.604C444.99 50.946 447.424 50.4721 449.353 49.6851C450.927 49.0428 452.165 48.1925 453.031 47.4055L452.837 48.5125C452.679 49.4125 453.286 50.1483 454.186 50.1483H462.142C463.042 50.1483 463.907 49.4125 464.064 48.5125L469.562 17.1205C469.72 16.2205 469.113 15.4843 468.213 15.4843H460.257C459.357 15.4843 458.492 16.2205 458.335 17.1205L458.092 18.5073ZM453.118 40.07C451.859 41.6532 450.004 42.8508 446.977 42.7106C443.367 42.543 442.387 37.7499 443.226 32.9568C444.065 28.1637 446.725 23.3702 450.393 23.203C453.47 23.0627 454.905 24.26 455.61 25.8435C457.141 29.2809 455.71 36.8127 453.118 40.07Z" fill="#ED3334"/>
<path d="M39.2903 2.23959H28.527C27.0037 2.23959 25.5526 3.47444 25.2858 4.99771L15.5233 60.7398C15.2565 62.2631 16.2751 63.4979 17.7984 63.4979H28.5616C30.0849 63.4979 31.536 62.2631 31.8028 60.7398L41.5653 4.99771C41.8321 3.47444 40.8135 2.23959 39.2903 2.23959Z" fill="#ED3334"/>
<path fill-rule="evenodd" clip-rule="evenodd" d="M11.3387 15.0104H18.1991L11.9438 50.7272H5.08341C1.75519 50.7272 -0.49066 48.0041 0.0920337 44.6759L4.22776 21.0618C4.81083 17.7336 8.00977 15.0104 11.3387 15.0104ZM45.1449 15.0104H52.0049C55.3335 15.0104 57.5793 17.7336 56.9966 21.0618L52.8605 44.6759C52.2778 48.0041 49.0781 50.7272 45.7495 50.7272H38.8891L45.1449 15.0104Z" fill="#ED3334"/>
<path fill-rule="evenodd" clip-rule="evenodd" d="M377.023 10.2681C375.062 9.6005 373.242 8.6277 371.619 7.40658C371.561 7.35578 371.179 7.01003 370.947 6.48837C370.715 5.96672 370.633 5.26953 371.176 4.51624C371.742 3.7311 372.223 3.08775 372.647 2.51908C373.072 1.95079 373.44 1.45832 373.782 0.975337C374.124 0.493108 374.674 0.178825 375.227 0.05713C375.782 -0.0645647 376.342 0.00594997 376.706 0.294074L376.708 0.295212L376.709 0.295591C377.614 1.00415 378.636 1.56978 379.742 1.95799C382.02 2.75792 384.54 2.75792 386.818 1.95799C387.924 1.56978 388.947 1.00453 389.852 0.295591L389.854 0.294074C390.218 0.00594997 390.779 -0.0645647 391.333 0.0567509C391.887 0.178446 392.436 0.492729 392.778 0.975337C393.12 1.45795 393.488 1.95079 393.913 2.51908C394.337 3.08737 394.818 3.7311 395.384 4.51624C395.928 5.26953 395.845 5.96672 395.613 6.48837C395.381 7.00965 394.999 7.35578 394.941 7.40658C393.318 8.6277 391.498 9.6005 389.537 10.2681C385.502 11.6413 381.059 11.6413 377.023 10.2681Z" fill="#ED3334"/>
<path d="M251.987 69.6309C251.078 69.6309 250.285 69.4265 249.608 69.0197C248.928 68.6103 248.411 68.045 248.059 67.3228C247.707 66.601 247.53 65.7711 247.53 64.8328C247.53 63.8919 247.709 63.059 248.068 62.3311C248.428 61.6066 248.946 61.0406 249.619 60.6342C250.293 60.2278 251.078 60.0261 251.976 60.0261C253.11 60.0261 254.039 60.3305 254.767 60.9386C255.495 61.5497 255.896 62.3603 255.972 63.3691H253.877C253.786 62.9001 253.582 62.5191 253.255 62.2291C252.931 61.9391 252.513 61.7943 252.004 61.7943C251.322 61.7943 250.776 62.0615 250.366 62.5984C249.957 63.1359 249.753 63.8691 249.753 64.7987C249.753 65.7423 249.954 66.4869 250.361 67.0302C250.768 67.573 251.313 67.843 252.004 67.843C252.49 67.843 252.9 67.7065 253.235 67.4278C253.57 67.1518 253.784 66.7652 253.877 66.2678H255.972C255.89 67.2739 255.495 68.0867 254.781 68.7036C254.068 69.3207 253.138 69.6309 251.987 69.6309ZM261.894 69.6309C260.498 69.6309 259.395 69.2017 258.588 68.3404C257.781 67.4817 257.377 66.3163 257.377 64.8525C257.377 63.9033 257.556 63.0643 257.917 62.3307C258.279 61.6005 258.796 61.0345 259.464 60.6311C260.132 60.2274 260.902 60.0257 261.78 60.0257C262.366 60.0257 262.909 60.1193 263.412 60.307C263.915 60.4947 264.364 60.7733 264.759 61.1456C265.154 61.5179 265.467 62.0069 265.691 62.6211C265.919 63.2322 266.029 63.934 266.029 64.7244V65.3985H259.551C259.557 66.1859 259.779 66.8027 260.208 67.2516C260.637 67.6978 261.209 67.9226 261.925 67.9226C262.405 67.9226 262.818 67.8202 263.161 67.6128C263.502 67.4085 263.747 67.1128 263.892 66.7231L265.941 66.9536C265.742 67.7721 265.285 68.4257 264.571 68.906C263.858 69.3894 262.965 69.6309 261.894 69.6309ZM259.557 63.9203H263.929C263.921 63.2804 263.722 62.7576 263.332 62.3485C262.943 61.9391 262.437 61.7313 261.809 61.7313C261.172 61.7313 260.646 61.9448 260.231 62.3656C259.819 62.789 259.594 63.3062 259.557 63.9203ZM267.102 61.9448V60.1455H275.243V61.9448H272.232V69.4489H270.112V61.9448H267.102ZM279.106 63.1754H281.221C282.386 63.1754 283.298 63.4597 283.961 64.028C284.621 64.5966 284.953 65.3583 284.956 66.311C284.953 67.2432 284.621 67.9992 283.958 68.5796C283.296 69.1592 282.384 69.4493 281.221 69.4493H276.991V60.1455H279.106V63.1754ZM279.106 64.9716V67.6492H281.221C281.695 67.6492 282.087 67.5272 282.395 67.2826C282.702 67.0381 282.855 66.7257 282.855 66.3421C282.855 65.941 282.702 65.6142 282.395 65.3583C282.087 65.1024 281.696 64.9716 281.221 64.9716H279.106ZM293.737 69.6362C293.134 69.6362 292.602 69.5342 292.142 69.3238C291.679 69.1164 291.309 68.798 291.036 68.3718C290.761 67.9423 290.624 67.4309 290.624 66.8395C290.624 66.4357 290.689 66.0748 290.823 65.7594C290.957 65.4466 291.13 65.1881 291.34 64.9917C291.553 64.793 291.818 64.6251 292.139 64.4856C292.458 64.3464 292.773 64.2441 293.089 64.1762C293.404 64.111 293.76 64.0537 294.155 64.0109C295.05 63.9146 295.601 63.8403 295.809 63.7922C296.15 63.7129 296.358 63.5765 296.426 63.3858C296.446 63.3259 296.457 63.255 296.457 63.1754V63.1382C296.457 62.678 296.321 62.3227 296.051 62.0756C295.781 61.828 295.391 61.7029 294.882 61.7029C294.376 61.7029 293.961 61.814 293.637 62.0354C293.313 62.2571 293.091 62.5415 292.974 62.8823L290.925 62.5923C291.164 61.7598 291.633 61.1259 292.33 60.685C293.026 60.2444 293.873 60.0253 294.871 60.0253C295.246 60.0253 295.604 60.0568 295.948 60.119C296.292 60.1815 296.63 60.2896 296.966 60.4458C297.301 60.5993 297.591 60.7953 297.835 61.0311C298.077 61.2699 298.276 61.5744 298.424 61.9497C298.575 62.3246 298.648 62.7485 298.648 63.2231V69.4485H296.542V68.1694H296.468C296.25 68.5985 295.911 68.9511 295.45 69.2237C294.99 69.4993 294.419 69.6362 293.737 69.6362ZM294.305 68.0246C294.948 68.0246 295.468 67.8396 295.866 67.4677C296.264 67.098 296.463 66.6435 296.463 66.1116V65.0144C296.283 65.1596 295.615 65.3132 294.453 65.4694C293.31 65.6312 292.739 66.0748 292.739 66.8023C292.739 67.1947 292.881 67.4957 293.168 67.7065C293.455 67.9196 293.833 68.0246 294.305 68.0246ZM300.857 69.4485V60.1447H308.714V69.4485H306.599V61.9444H302.955V69.4485H300.857ZM309.925 61.9444V60.1451H318.066V61.9444H315.056V69.4485H312.935V61.9444H309.925ZM323.547 69.6305C322.151 69.6305 321.048 69.2013 320.241 68.34C319.434 67.4813 319.03 66.3159 319.03 64.8522C319.03 63.9029 319.209 63.0639 319.57 62.3303C319.931 61.6001 320.449 61.0341 321.117 60.6308C321.785 60.227 322.555 60.0253 323.433 60.0253C324.019 60.0253 324.562 60.119 325.065 60.3066C325.568 60.4943 326.017 60.7729 326.412 61.1452C326.807 61.5175 327.12 62.0066 327.344 62.6207C327.572 63.2318 327.682 63.9336 327.682 64.724V65.3981H321.204C321.21 66.1855 321.432 66.8023 321.861 67.2512C322.29 67.6974 322.862 67.9222 323.578 67.9222C324.058 67.9222 324.471 67.8198 324.814 67.6125C325.155 67.4081 325.4 67.1124 325.545 66.7227L327.594 66.9532C327.395 67.7717 326.937 68.4253 326.224 68.9056C325.51 69.389 324.618 69.6305 323.547 69.6305ZM321.21 63.9199H325.582C325.574 63.28 325.375 62.7572 324.985 62.3481C324.596 61.9387 324.09 61.7309 323.462 61.7309C322.825 61.7309 322.299 61.9444 321.884 62.3652C321.472 62.7887 321.247 63.3058 321.21 63.9199ZM337.308 60.1451V69.4489H335.199V66.4983C334.642 66.6291 334.099 66.6943 333.564 66.6943C332.288 66.6943 331.298 66.4073 330.594 65.8329C329.889 65.2589 329.536 64.395 329.536 63.2349V60.1337H331.634V63.2349C331.634 63.8233 331.79 64.2471 332.103 64.5057C332.416 64.7642 332.902 64.895 333.564 64.895C334.107 64.895 334.65 64.8271 335.199 64.6876V60.1455L337.308 60.1451ZM341.631 60.1451V63.8888H345.236V60.1451H347.342V69.4489H345.236V65.6881H341.631V69.4489H339.516V60.1451H341.631ZM351.674 63.1754H353.79C354.955 63.1754 355.867 63.4597 356.53 64.028C357.189 64.5966 357.522 65.3583 357.525 66.311C357.522 67.2432 357.189 67.9992 356.527 68.5796C355.864 69.1592 354.952 69.4493 353.79 69.4493H349.559V60.1455H351.674V63.1754ZM358.681 69.4489V60.1451H360.873V69.4489H358.681ZM351.674 64.9716V67.6492H353.79C354.264 67.6492 354.656 67.5272 354.964 67.2826C355.271 67.0381 355.424 66.7257 355.424 66.3421C355.424 65.941 355.27 65.6142 354.964 65.3583C354.656 65.1024 354.265 64.9716 353.79 64.9716H351.674ZM364.921 60.1451L366.8 63.5787L368.708 60.1451H371.027L368.222 64.7983L371.075 69.4485H368.767L366.8 66.0998L364.848 69.4485H362.522L365.357 64.7983L362.596 60.1451H364.921ZM382.309 66.899L385.069 60.1451H387.735V69.4489H385.64V63.1128L383.077 69.4489H381.544L379.068 63.181V69.4489H376.953V60.1451H379.62L382.309 66.899ZM392.628 69.6362C392.025 69.6362 391.493 69.5342 391.033 69.3238C390.57 69.1164 390.2 68.798 389.927 68.3718C389.652 67.9423 389.515 67.4309 389.515 66.8395C389.515 66.4357 389.58 66.0748 389.714 65.7594C389.848 65.4466 390.021 65.1881 390.231 64.9917C390.444 64.793 390.709 64.6251 391.03 64.4856C391.348 64.3464 391.664 64.2441 391.979 64.1762C392.295 64.111 392.65 64.0537 393.045 64.0109C393.941 63.9146 394.492 63.8403 394.7 63.7922C395.041 63.7129 395.248 63.5765 395.317 63.3858C395.337 63.3259 395.348 63.255 395.348 63.1754V63.1382C395.348 62.678 395.212 62.3227 394.941 62.0756C394.671 61.828 394.282 61.7029 393.773 61.7029C393.267 61.7029 392.852 61.814 392.528 62.0354C392.204 62.2571 391.982 62.5415 391.865 62.8823L389.816 62.5923C390.055 61.7598 390.524 61.1259 391.22 60.685C391.917 60.2444 392.764 60.0253 393.762 60.0253C394.137 60.0253 394.495 60.0568 394.839 60.119C395.182 60.1815 395.521 60.2896 395.856 60.4458C396.192 60.5993 396.482 60.7953 396.726 61.0311C396.968 61.2699 397.167 61.5744 397.315 61.9497C397.465 62.3246 397.539 62.7485 397.539 63.2231V69.4485H395.433V68.1694H395.359C395.14 68.5985 394.802 68.9511 394.341 69.2237C393.881 69.4993 393.31 69.6362 392.628 69.6362ZM393.196 68.0246C393.838 68.0246 394.359 67.8396 394.756 67.4677C395.154 67.098 395.353 66.6435 395.353 66.1116V65.0144C395.174 65.1596 394.506 65.3132 393.343 65.4694C392.201 65.6312 391.629 66.0748 391.629 66.8023C391.629 67.1947 391.772 67.4957 392.059 67.7065C392.346 67.9196 392.724 68.0246 393.196 68.0246ZM405.902 60.1451V61.9444H401.894V69.4485H399.748V60.1447L405.902 60.1451ZM409.942 69.6362C409.339 69.6362 408.807 69.5342 408.347 69.3238C407.884 69.1164 407.514 68.798 407.241 68.3718C406.966 67.9423 406.829 67.4309 406.829 66.8395C406.829 66.4357 406.894 66.0748 407.028 65.7594C407.162 65.4466 407.335 65.1881 407.545 64.9917C407.758 64.793 408.023 64.6251 408.344 64.4856C408.662 64.3464 408.978 64.2441 409.293 64.1762C409.609 64.111 409.964 64.0537 410.359 64.0109C411.255 63.9146 411.806 63.8403 412.014 63.7922C412.355 63.7129 412.562 63.5765 412.631 63.3858C412.651 63.3259 412.662 63.255 412.662 63.1754V63.1382C412.662 62.678 412.526 62.3227 412.255 62.0756C411.985 61.828 411.596 61.7029 411.087 61.7029C410.581 61.7029 410.166 61.814 409.842 62.0354C409.518 62.2571 409.296 62.5415 409.179 62.8823L407.13 62.5923C407.369 61.7598 407.838 61.1259 408.534 60.685C409.231 60.2444 410.078 60.0253 411.076 60.0253C411.451 60.0253 411.809 60.0568 412.153 60.119C412.496 60.1815 412.835 60.2896 413.171 60.4458C413.506 60.5993 413.796 60.7953 414.04 61.0311C414.282 61.2699 414.481 61.5744 414.629 61.9497C414.779 62.3246 414.853 62.7485 414.853 63.2231V69.4485H412.747V68.1694H412.673C412.454 68.5985 412.116 68.9511 411.655 69.2237C411.195 69.4993 410.624 69.6362 409.942 69.6362ZM410.51 68.0246C411.152 68.0246 411.673 67.8396 412.07 67.4677C412.468 67.098 412.667 66.6435 412.667 66.1116V65.0144C412.488 65.1596 411.82 65.3132 410.657 65.4694C409.515 65.6312 408.943 66.0748 408.943 66.8023C408.943 67.1947 409.086 67.4957 409.373 67.7065C409.66 67.9196 410.038 68.0246 410.51 68.0246ZM416.548 66.899H418.722C418.742 67.2428 418.898 67.5101 419.185 67.7008C419.475 67.8938 419.853 67.9908 420.322 67.9908C420.814 67.9908 421.218 67.8828 421.533 67.6667C421.849 67.451 422.005 67.1378 422.005 66.7288C422.005 66.3538 421.866 66.0494 421.59 65.8162C421.314 65.5804 420.948 65.4641 420.49 65.4641H419.068V63.9063H420.49C420.93 63.9063 421.272 63.8039 421.516 63.5992C421.761 63.3918 421.883 63.1272 421.883 62.7974C421.883 62.4505 421.758 62.1719 421.508 61.9588C421.257 61.7488 420.917 61.6434 420.484 61.6434C420.049 61.6434 419.685 61.74 419.398 61.9395C419.108 62.1381 418.958 62.391 418.947 62.7011H416.783C416.8 61.9023 417.147 61.257 417.824 60.7653C418.5 60.271 419.353 60.0265 420.382 60.0265C421.465 60.0265 422.323 60.2623 422.963 60.7399C423.6 61.2172 423.918 61.8485 423.918 62.6359C423.918 63.1276 423.764 63.5427 423.455 63.8752C423.148 64.2077 422.718 64.4465 422.176 64.5917V64.688C422.735 64.7225 423.202 64.9382 423.574 65.3393C423.944 65.7431 424.131 66.2518 424.131 66.8687C424.131 67.4313 423.966 67.9203 423.639 68.3411C423.312 68.7619 422.863 69.08 422.292 69.3018C421.721 69.5205 421.067 69.6312 420.333 69.6312C419.236 69.6312 418.335 69.3871 417.639 68.9007C416.94 68.4147 416.576 67.7459 416.548 66.899ZM427.978 66.4808L431.701 60.1447H433.956V69.4485H431.835V63.1067L428.123 69.4485H425.863V60.1447H427.978V66.4808ZM438.316 60.1447V63.8885H441.921V60.1447H444.027V69.4485H441.921V65.6877H438.316V69.4485H436.201V60.1447H438.316ZM452.663 69.0334C451.986 69.4315 451.199 69.6301 450.303 69.6301C449.408 69.6301 448.621 69.4315 447.944 69.0334C447.267 68.6353 446.748 68.0754 446.386 67.3509C446.025 66.626 445.846 65.7874 445.846 64.8321C445.846 63.8797 446.025 63.0412 446.386 62.3133C446.748 61.5857 447.268 61.0228 447.944 60.6251C448.621 60.224 449.408 60.0253 450.303 60.0253C451.199 60.0253 451.986 60.224 452.663 60.6251C453.34 61.0231 453.857 61.5857 454.218 62.3133C454.581 63.0412 454.76 63.8794 454.76 64.8321C454.76 65.7871 454.581 66.6257 454.218 67.3509C453.857 68.0754 453.339 68.6357 452.663 69.0334ZM450.315 67.8733C450.795 67.8733 451.204 67.7368 451.546 67.4612C451.884 67.1882 452.134 66.8243 452.296 66.3754C452.458 65.9235 452.538 65.4091 452.538 64.8264C452.538 64.2467 452.458 63.7292 452.299 63.2773C452.14 62.8254 451.889 62.4588 451.549 62.1802C451.207 61.9015 450.795 61.762 450.315 61.762C449.948 61.762 449.619 61.8416 449.331 62.0009C449.041 62.1601 448.808 62.3819 448.626 62.6605C448.444 62.9392 448.305 63.2603 448.211 63.6269C448.115 63.9965 448.069 64.3946 448.069 64.8264C448.069 65.4091 448.148 65.9235 448.311 66.3754C448.473 66.8243 448.723 67.1882 449.067 67.4612C449.411 67.7368 449.826 67.8733 450.315 67.8733ZM456.614 69.4481V60.1444H460.523C461.628 60.1444 462.501 60.3658 463.138 60.8124C463.775 61.2555 464.096 61.8667 464.096 62.6457C464.096 63.1606 463.916 63.581 463.561 63.9139C463.206 64.2433 462.711 64.4681 462.077 64.5849C462.814 64.6501 463.408 64.8942 463.865 65.3181C464.32 65.7419 464.55 66.2761 464.55 66.924C464.55 67.7031 464.246 68.3172 463.643 68.7688C463.041 69.2207 462.199 69.4485 461.122 69.4485L456.614 69.4481ZM458.669 67.7228H461.122C461.526 67.7228 461.841 67.6261 462.072 67.4385C462.302 67.2481 462.418 66.9835 462.418 66.6507C462.418 66.267 462.302 65.966 462.072 65.7438C461.841 65.5251 461.526 65.4144 461.122 65.4144H458.669V67.7228ZM458.669 63.9961H460.562C461.009 63.9961 461.359 63.9025 461.611 63.7118C461.867 63.5215 461.992 63.2599 461.992 62.924C461.992 62.6059 461.862 62.3557 461.6 62.1737C461.338 61.9914 460.978 61.9008 460.523 61.9008H458.669L458.669 63.9961Z" fill="#ED3334"/>
</svg>
