<svg width="88" height="50" viewBox="0 0 88 50" fill="none" xmlns="http://www.w3.org/2000/svg">
<path d="M23.9318 39.6609V37.6006H16.3313V50.0001H23.9318V47.9523H18.6428V44.7111H23.5046V42.6634H18.6428V39.6609H23.9318ZM80.2509 47.9523V37.6006H77.9393V50.0001H85.1378V47.9523H80.2509ZM46.9594 39.6609V37.6006H39.3463V50.0001H46.9594V47.9523H41.6704V44.7111H46.5197V42.6634H41.6704V39.6609H46.9594ZM34.2584 37.6006V46.9724L29.5348 37.6006H26.4443V50.0001H28.7559V40.6157L33.5297 50.0001H36.5825V37.6006H34.2584ZM73.9694 50.0001H76.3815L72.487 37.6006H69.2207L65.3262 50.0001H67.7383L68.4921 47.4875H73.2408L73.9694 50.0001ZM69.0951 45.4272L70.8413 39.5227L72.6001 45.4272H69.0951ZM63.0524 37.6006L60.6529 47.3619L58.4544 37.6006H55.3514L53.1403 47.3619L50.7408 37.6006H48.4167L51.5071 50.0001H54.673L56.8966 39.9875L59.1202 50.0001H62.2986L65.3639 37.6006H63.0524ZM11.6076 50.0001H14.472L11.3061 45.6157C11.8657 45.4142 12.347 45.0406 12.681 44.5486C13.0151 44.0566 13.1847 43.4714 13.1654 42.877V40.9046C13.1654 38.5554 12.0096 37.6383 9.39658 37.6131H4.2207V50.0001H6.54482V45.9297H8.79357L11.6076 50.0001ZM6.58251 39.6609H9.35889C9.56115 39.606 9.77393 39.6025 9.97786 39.6508C10.1818 39.6992 10.3704 39.7978 10.5265 39.9376C10.6826 40.0775 10.8012 40.2542 10.8715 40.4516C10.9419 40.649 10.9617 40.8609 10.9292 41.0679V42.4624C10.9617 42.6694 10.9419 42.8813 10.8715 43.0787C10.8012 43.2762 10.6826 43.4529 10.5265 43.5927C10.3704 43.7326 10.1818 43.8311 9.97786 43.8795C9.77393 43.9278 9.56115 43.9244 9.35889 43.8694H6.54482V39.6609H6.58251Z" fill="#4A555A"/>
<path d="M44.6733 0.000104542C44.5059 -0.00947495 44.3381 -0.00947495 44.1707 0.000104542H13.6431C11.8175 -0.0553138 9.99926 0.256412 8.29632 0.916798C6.59339 1.57718 5.0404 2.57278 3.72942 3.84457C2.41845 5.11635 1.37619 6.63842 0.664437 8.32053C-0.047314 10.0026 -0.414063 11.8105 -0.414062 13.637C-0.414063 15.4635 -0.047314 17.2714 0.664437 18.9535C1.37619 20.6357 2.41845 22.1577 3.72942 23.4295C5.0404 24.7013 6.59339 25.6969 8.29632 26.3573C9.99926 27.0177 11.8175 27.3294 13.6431 27.274H36.6707L44.6733 0.000104542Z" fill="url(#paint0_linear_1464_984)"/>
<path d="M73.8696 0.000117243H51.0806L43.0781 27.274H73.8696C75.6952 27.3294 77.5134 27.0177 79.2164 26.3573C80.9193 25.6969 82.4723 24.7013 83.7833 23.4295C85.0942 22.1577 86.1365 20.6357 86.8483 18.9536C87.56 17.2714 87.9268 15.4635 87.9268 13.6371C87.9268 11.8106 87.56 10.0027 86.8483 8.32054C86.1365 6.63843 85.0942 5.11636 83.7833 3.84458C82.4723 2.5728 80.9193 1.5772 79.2164 0.91681C77.5134 0.256424 75.6952 -0.0553011 73.8696 0.000117243Z" fill="url(#paint1_linear_1464_984)"/>
<path d="M74.4594 3.09058H50.1629L47.7383 11.3067H78.6051C81.0989 11.2903 83.5404 12.021 85.6152 13.4046C85.3552 10.6123 84.0723 8.01448 82.013 6.11063C79.9538 4.20677 77.2636 3.13118 74.4594 3.09058Z" fill="#F0F5E3"/>
<path d="M43.7818 3.09058H13.4175C10.6133 3.13118 7.92308 4.20677 5.86386 6.11063C3.80463 8.01448 2.52173 10.6123 2.26172 13.4046C4.33195 12.0213 6.7694 11.2905 9.25921 11.3067H41.3698L43.7818 3.09058Z" fill="#E9F6FD"/>
<path d="M38.2161 22.0353H9.81154C8.00759 22.0344 6.21915 21.7022 4.53516 21.0554C5.62603 22.4136 7.00652 23.511 8.57579 24.2674C10.1451 25.0237 11.8635 25.42 13.6055 25.4272H37.2236L38.2161 22.0353Z" fill="#5FC6F1"/>
<path d="M78.0653 22.0353H44.6105L43.6055 25.4398H74.2839C76.0239 25.4316 77.7402 25.0348 79.3073 24.2785C80.8744 23.5221 82.2527 22.4252 83.3416 21.068C81.6572 21.7116 79.8685 22.0395 78.0653 22.0353Z" fill="#C5D985"/>
<defs>
<linearGradient id="paint0_linear_1464_984" x1="21.8545" y1="-0.795247" x2="21.8545" y2="28.0718" gradientUnits="userSpaceOnUse">
<stop stop-color="#D1ECFB"/>
<stop offset="0.24" stop-color="#69C6EF"/>
<stop offset="1" stop-color="#00A0E3"/>
</linearGradient>
<linearGradient id="paint1_linear_1464_984" x1="67.3143" y1="-0.795234" x2="67.3143" y2="28.0718" gradientUnits="userSpaceOnUse">
<stop stop-color="#E2ECC5"/>
<stop offset="0.24" stop-color="#BCD778"/>
<stop offset="1" stop-color="#96C22B"/>
</linearGradient>
</defs>
</svg>
